<svg id="Layer_1" data-name="Layer 1" xmlns="http://www.w3.org/2000/svg" viewBox="0 0 75.67 37.67"><defs><style>.cls-1{fill:#231815;}</style></defs><title>logo-final</title><path class="cls-1" d="M60.14,59.47V49.52c0-2.94-1-4.41-3-4.41H48.79V39.34l4.92,2.82H91.57l5.56-3v5.91H85.78v10c0,2.92,1,4.37,3,4.37H99.49V36.52H97.13L91.57,39.2H54.06l-5.27-2.68H46.43V55.1c0,2.92,1,4.37,3,4.37Zm37-4.37H89.64a1.31,1.31,0,0,1-1.5-1.36V47.33h9ZM48.79,53.74V47.33h8.06c.64,0,.95.34.93,1V55.1H50.29A1.31,1.31,0,0,1,48.79,53.74Z" transform="translate(-37.39 -36.52)"/><path class="cls-1" d="M82.91,59.47V49.52q0-4.41-3-4.41H63V59.4h2.37V47.33H69.7c.64,0,1,.34.93,1V59.47h3.51V47.33h4.33c.62,0,.93.34.93,1V59.47Z" transform="translate(-37.39 -36.52)"/><path class="cls-1" d="M51.07,63.48H99.49V60.74H48.33A2.74,2.74,0,0,0,51.07,63.48Z" transform="translate(-37.39 -36.52)"/><circle class="cls-1" cx="64.81" cy="25.59" r="1.37"/><path class="cls-1" d="M92.81,53.52A2.79,2.79,0,1,0,90,50.74,2.79,2.79,0,0,0,92.81,53.52Z" transform="translate(-37.39 -36.52)"/><path class="cls-1" d="M53,53a2.5,2.5,0,1,0-2.51-2.5A2.5,2.5,0,0,0,53,53Z" transform="translate(-37.39 -36.52)"/><path class="cls-1" d="M40.72,68.93h1.33v3.78a1.27,1.27,0,0,1-1.48,1.48h-1.7a1.58,1.58,0,0,1-1.13-.35,1.59,1.59,0,0,1-.35-1.13V68.93h1.33v3.78a.39.39,0,0,0,.45.44h1.11a.39.39,0,0,0,.44-.44Z" transform="translate(-37.39 -36.52)"/><path class="cls-1" d="M45.13,71.19a3.07,3.07,0,0,0-.89.15v2.77h-1.3V70.19h1.15l.07.37a2.77,2.77,0,0,1,.72-.34,2.26,2.26,0,0,1,.62-.1h.33a1.11,1.11,0,0,1,.81.3,1.09,1.09,0,0,1,.3.81v2.88h-1.3V71.45a.25.25,0,0,0-.07-.19.24.24,0,0,0-.18-.07Z" transform="translate(-37.39 -36.52)"/><path class="cls-1" d="M49.86,71.19a3.06,3.06,0,0,0-.88.15v2.77h-1.3V70.19h1.15l.07.37a2.63,2.63,0,0,1,.72-.34,2.25,2.25,0,0,1,.61-.1h.34a1.09,1.09,0,0,1,.8.3,1.06,1.06,0,0,1,.31.81v2.88h-1.3V71.45a.24.24,0,0,0-.26-.26Z" transform="translate(-37.39 -36.52)"/><path class="cls-1" d="M52.6,70.26c.91-.09,1.72-.14,2.45-.14a1.09,1.09,0,0,1,.8.3,1.06,1.06,0,0,1,.31.81v2.88H55l-.07-.37a2.48,2.48,0,0,1-.72.34,2.32,2.32,0,0,1-.62.11h-.26a1.06,1.06,0,0,1-1.11-1.11v-.34a1.06,1.06,0,0,1,1.11-1.11h1.52v-.29a.24.24,0,0,0-.26-.26c-.32,0-.67,0-1.06,0l-.94.07ZM54,73.15a3.12,3.12,0,0,0,.89-.15v-.44H53.79a.24.24,0,0,0-.26.26v.07a.24.24,0,0,0,.26.26Z" transform="translate(-37.39 -36.52)"/><path class="cls-1" d="M59.53,70.12a1.06,1.06,0,0,1,.92.44,2.49,2.49,0,0,1,.74-.34,2.75,2.75,0,0,1,.71-.1H62a1.13,1.13,0,0,1,.81.3,1.09,1.09,0,0,1,.3.81v2.88h-1.3V71.45a.24.24,0,0,0-.26-.26h0a3.17,3.17,0,0,0-.85.15v2.77h-1.3V71.45a.24.24,0,0,0-.26-.26h0a3.23,3.23,0,0,0-.85.15v2.77H56.9V70.19H58l.08.37a2.71,2.71,0,0,1,.71-.34,2.32,2.32,0,0,1,.62-.1Z" transform="translate(-37.39 -36.52)"/><path class="cls-1" d="M67.45,74a25,25,0,0,1-2.59.15,1.06,1.06,0,0,1-.81-.31,1.09,1.09,0,0,1-.3-.8V71.3a1.08,1.08,0,0,1,1.18-1.18h1.48A1.09,1.09,0,0,1,67.6,71.3v1.37H65V73a.25.25,0,0,0,.08.18.24.24,0,0,0,.18.07c.49,0,1.21,0,2.15-.11Zm-2.11-3a.27.27,0,0,0-.3.3v.4H66.3v-.4A.27.27,0,0,0,66,71Z" transform="translate(-37.39 -36.52)"/><path class="cls-1" d="M71.11,74.11,71,73.74a2.37,2.37,0,0,1-.72.34,2.32,2.32,0,0,1-.61.11h-.34a1.06,1.06,0,0,1-1.11-1.11V71.37a1.09,1.09,0,0,1,1.19-1.18H71V68.93h1.3v5.18Zm-1-1A3.4,3.4,0,0,0,71,73V71.19H69.85a.26.26,0,0,0-.29.3v1.36a.24.24,0,0,0,.26.26Z" transform="translate(-37.39 -36.52)"/><path class="cls-1" d="M78,74.11H76.63V70H75.07v-1h4.45v1H78Z" transform="translate(-37.39 -36.52)"/><path class="cls-1" d="M83.29,74a25,25,0,0,1-2.59.15,1.06,1.06,0,0,1-.81-.31,1.09,1.09,0,0,1-.3-.8V71.3a1.08,1.08,0,0,1,1.18-1.18h1.48a1.16,1.16,0,0,1,.87.31,1.18,1.18,0,0,1,.32.87v1.37H80.88V73a.25.25,0,0,0,.08.18.24.24,0,0,0,.18.07c.49,0,1.21,0,2.15-.11Zm-2.11-3a.27.27,0,0,0-.3.3v.4h1.26v-.4a.26.26,0,0,0-.29-.3Z" transform="translate(-37.39 -36.52)"/><path class="cls-1" d="M84.37,70.26c.9-.09,1.71-.14,2.44-.14a1.13,1.13,0,0,1,.81.3,1.09,1.09,0,0,1,.3.81v2.88H86.77l-.07-.37a2.48,2.48,0,0,1-.72.34,2.32,2.32,0,0,1-.62.11h-.25a1.06,1.06,0,0,1-.81-.31,1.09,1.09,0,0,1-.3-.8v-.34a1.09,1.09,0,0,1,.3-.8,1.06,1.06,0,0,1,.81-.31h1.51v-.29a.24.24,0,0,0-.26-.26c-.32,0-.67,0-1.06,0l-.93.07Zm1.36,2.89a3.07,3.07,0,0,0,.89-.15v-.44H85.55a.26.26,0,0,0-.19.07.29.29,0,0,0-.07.19v.07a.29.29,0,0,0,.07.19.26.26,0,0,0,.19.07Z" transform="translate(-37.39 -36.52)"/><path class="cls-1" d="M91.29,70.12a1,1,0,0,1,.92.44,2.61,2.61,0,0,1,.74-.34,2.75,2.75,0,0,1,.71-.1h.07a1.11,1.11,0,0,1,.81.3,1.09,1.09,0,0,1,.3.81v2.88H93.55V71.45a.26.26,0,0,0-.08-.19.24.24,0,0,0-.18-.07h0a3.17,3.17,0,0,0-.85.15v2.77H91.1V71.45a.24.24,0,0,0-.26-.26h0a3.11,3.11,0,0,0-.85.15v2.77h-1.3V70.19h1.15l.07.37a2.63,2.63,0,0,1,.72-.34,2.25,2.25,0,0,1,.61-.1Z" transform="translate(-37.39 -36.52)"/><path class="cls-1" d="M98,68.93h3.11a1.56,1.56,0,0,1,1.13.35,1.58,1.58,0,0,1,.35,1.13v.74a1.56,1.56,0,0,1-.35,1.13,1.52,1.52,0,0,1-1.13.35H99.28v1.48H98Zm3.26,1.48a.39.39,0,0,0-.45-.44H99.28V71.6h1.48a.4.4,0,0,0,.45-.45Z" transform="translate(-37.39 -36.52)"/><path class="cls-1" d="M106.17,68.93a1.76,1.76,0,0,1,1.27.43,1.73,1.73,0,0,1,.43,1.27v1.78a1.51,1.51,0,0,1-1.7,1.7h-2.89V68.93Zm.37,1.7a.59.59,0,0,0-.67-.66h-1.26v3.11h1.26a.59.59,0,0,0,.67-.67Z" transform="translate(-37.39 -36.52)"/><path class="cls-1" d="M111.54,68.93H113l-1.67,2.59,1.7,2.59h-1.48l-1-1.63-1,1.63H108l1.7-2.59-1.66-2.59h1.47l1,1.63Z" transform="translate(-37.39 -36.52)"/></svg>